<?xml version="1.0" encoding="UTF-8" standalone="no"?>
<!DOCTYPE svg PUBLIC "-//W3C//DTD SVG 1.1//EN" "http://www.w3.org/Graphics/SVG/1.1/DTD/svg11.dtd">
<svg width="100%" height="100%" viewBox="0 0 8241 1883" version="1.1" xmlns="http://www.w3.org/2000/svg" xmlns:xlink="http://www.w3.org/1999/xlink" xml:space="preserve" xmlns:serif="http://www.serif.com/" style="fill-rule:evenodd;clip-rule:evenodd;stroke-linejoin:round;stroke-miterlimit:2;">
    <g transform="matrix(1,0,0,1,0,-9309)">
        <g transform="matrix(4.02361,0,0,1.22553,0,9309)">
            <rect id="full_theme-dark" x="0" y="0" width="2048" height="1536" style="fill:none;"/>
            <g id="full_theme-dark1" serif:id="full_theme-dark">
                <g>
                    <g transform="matrix(0.248533,0,0,0.815974,-13826,-38358.5)">
                        <path d="M56484,48513.5L56299.5,48513.5C56263.8,48513.5 56230.8,48494.4 56212.9,48463.5C56195.1,48432.6 56195.1,48394.4 56212.9,48363.5C56340.9,48141.9 56579.1,47729.4 56707.1,47507.8C56724.9,47476.9 56758,47457.9 56793.7,47457.9C56829.4,47457.9 56862.4,47476.9 56880.3,47507.8C57008.2,47729.4 57246.4,48141.9 57374.4,48363.5C57392.3,48394.4 57392.3,48432.6 57374.4,48463.5C57356.6,48494.4 57323.5,48513.5 57287.8,48513.5L57103.3,48513.5L57081.6,48434.8C57079.3,48426.7 57075.1,48419.3 57069.2,48413.2C57054.9,48398.6 57027.6,48370.5 57016.1,48358.8C57012.7,48355.3 57010.2,48351 57008.8,48346.3C56996.8,48305.3 56936.4,48100.1 56924.2,48058.8C56922.9,48054.2 56923.8,48049.2 56926.7,48045.5C56936.2,48032.9 56958,48004.2 56968.7,47990.1C56972.7,47984.9 56974.8,47978.5 56974.8,47972C56974.8,47953.8 56974.8,47914.7 56974.8,47887.2C56974.8,47870.7 56961.4,47857.2 56944.8,47857.2L56917.1,47857.2C56913.2,47857.2 56909.3,47858.8 56906.5,47861.6C56903.7,47864.4 56902.1,47868.3 56902.1,47872.2L56902.1,47901.7C56902.1,47905.6 56900.5,47909.5 56897.7,47912.3C56894.9,47915.1 56891.1,47916.7 56887.1,47916.7C56874.9,47916.7 56857.8,47916.7 56845.6,47916.7C56841.7,47916.7 56837.8,47915.1 56835,47912.3C56832.2,47909.5 56830.6,47905.6 56830.6,47901.7C56830.6,47892.7 56830.6,47881.2 56830.6,47872.2C56830.6,47868.3 56829.1,47864.4 56826.2,47861.6C56823.4,47858.8 56819.6,47857.2 56815.6,47857.2C56803.1,47857.2 56785.2,47857.2 56772.6,47857.2C56768.6,47857.2 56764.8,47858.8 56762,47861.6C56759.2,47864.4 56757.6,47868.3 56757.6,47872.2C56757.6,47881.2 56757.6,47892.7 56757.6,47901.7C56757.6,47905.6 56756,47909.5 56753.2,47912.3C56750.4,47915.1 56746.6,47916.7 56742.6,47916.7C56731.1,47916.7 56715.4,47916.7 56703.9,47916.7C56699.9,47916.7 56696.1,47915.1 56693.3,47912.3C56690.5,47909.5 56688.9,47905.6 56688.9,47901.7C56688.9,47892.7 56688.9,47881.2 56688.9,47872.2C56688.9,47868.3 56687.3,47864.4 56684.5,47861.6C56681.7,47858.8 56677.9,47857.2 56673.9,47857.2C56662.6,47857.2 56646.8,47857.2 56633,47857.2C56625,47857.2 56617.4,47860.4 56611.8,47866C56606.1,47871.7 56603,47879.3 56603,47887.2C56603,47913.9 56603,47951.5 56603,47970.3C56603,47977.9 56605.8,47985.2 56611,47990.7C56624.1,48004.9 56649.8,48032.7 56661.4,48045.2C56665,48049.1 56666.3,48054.6 56664.7,48059.7C56651.6,48103.4 56589.9,48307.5 56578.1,48346.9C56576.7,48351.2 56574.5,48355.2 56571.4,48358.6C56560.6,48370.4 56533.5,48399.8 56520.2,48414.2C56515.2,48419.6 56511.5,48426.1 56509.3,48433.1L56484,48513.5Z" style="fill:rgb(129,155,248);"/>
                    </g>
                    <g transform="matrix(25.1658,0,0,82.6234,-61630.1,-263516)">
                        <g transform="matrix(0.00987582,0,0,0.00987582,2411.58,3090.03)">
                            <path d="M5435.49,10652.4L6199.51,10652.4L6199.51,10785.8L5917.61,10785.8L5917.61,11561.9L5759.91,11561.9L5759.91,10785.8L5512.58,10785.8L5435.49,10652.4Z" style="fill:rgb(129,155,248);fill-rule:nonzero;"/>
                        </g>
                        <g transform="matrix(1,0,0,1,-0.365405,0)">
                            <path d="M2475.14,3204.21C2474.43,3204.21 2473.81,3204.07 2473.28,3203.79C2472.75,3203.5 2472.33,3203.12 2472.04,3202.62C2471.75,3202.12 2471.6,3201.56 2471.6,3200.93C2471.6,3200.29 2471.74,3199.72 2472.03,3199.23C2472.31,3198.74 2472.71,3198.35 2473.21,3198.07C2473.71,3197.79 2474.28,3197.65 2474.91,3197.65C2475.54,3197.65 2476.1,3197.78 2476.59,3198.06C2477.08,3198.33 2477.46,3198.71 2477.74,3199.21C2478.02,3199.71 2478.16,3200.29 2478.16,3200.97C2478.16,3201.03 2478.16,3201.1 2478.15,3201.18C2478.15,3201.26 2478.14,3201.34 2478.13,3201.41L2472.8,3201.41L2472.8,3200.41L2477.34,3200.41L2476.75,3200.73C2476.76,3200.36 2476.68,3200.04 2476.52,3199.76C2476.37,3199.47 2476.15,3199.25 2475.87,3199.1C2475.6,3198.94 2475.28,3198.86 2474.92,3198.86C2474.55,3198.86 2474.23,3198.94 2473.95,3199.1C2473.67,3199.25 2473.46,3199.48 2473.3,3199.76C2473.15,3200.05 2473.07,3200.38 2473.07,3200.76L2473.07,3201C2473.07,3201.39 2473.16,3201.72 2473.33,3202.02C2473.51,3202.31 2473.76,3202.54 2474.08,3202.7C2474.39,3202.87 2474.76,3202.95 2475.19,3202.95C2475.55,3202.95 2475.87,3202.89 2476.16,3202.78C2476.44,3202.66 2476.7,3202.48 2476.92,3202.25L2477.73,3203.17C2477.44,3203.51 2477.07,3203.77 2476.64,3203.95C2476.2,3204.12 2475.7,3204.21 2475.14,3204.21Z" style="fill:rgb(129,155,248);fill-rule:nonzero;"/>
                        </g>
                        <g transform="matrix(1,0,0,1,-0.147397,0)">
                            <path d="M2481.16,3204.21C2480.62,3204.21 2480.11,3204.14 2479.62,3204C2479.12,3203.87 2478.74,3203.7 2478.45,3203.5L2479.03,3202.36C2479.31,3202.54 2479.65,3202.69 2480.05,3202.81C2480.45,3202.93 2480.86,3202.99 2481.25,3202.99C2481.73,3202.99 2482.07,3202.93 2482.28,3202.8C2482.49,3202.67 2482.6,3202.5 2482.6,3202.28C2482.6,3202.11 2482.53,3201.97 2482.38,3201.88C2482.24,3201.79 2482.05,3201.72 2481.82,3201.67C2481.58,3201.62 2481.32,3201.58 2481.04,3201.54C2480.76,3201.5 2480.48,3201.44 2480.19,3201.38C2479.91,3201.31 2479.65,3201.21 2479.42,3201.08C2479.18,3200.95 2479,3200.77 2478.85,3200.54C2478.71,3200.32 2478.64,3200.02 2478.64,3199.65C2478.64,3199.25 2478.75,3198.9 2478.99,3198.6C2479.22,3198.29 2479.54,3198.06 2479.96,3197.89C2480.38,3197.73 2480.88,3197.65 2481.45,3197.65C2481.89,3197.65 2482.32,3197.7 2482.76,3197.79C2483.21,3197.89 2483.57,3198.03 2483.86,3198.21L2483.28,3199.35C2482.98,3199.16 2482.68,3199.04 2482.37,3198.97C2482.06,3198.9 2481.75,3198.87 2481.45,3198.87C2480.99,3198.87 2480.66,3198.93 2480.43,3199.07C2480.21,3199.2 2480.1,3199.37 2480.1,3199.59C2480.1,3199.77 2480.17,3199.91 2480.32,3200.01C2480.46,3200.11 2480.65,3200.18 2480.88,3200.24C2481.12,3200.3 2481.38,3200.34 2481.66,3200.38C2481.94,3200.42 2482.22,3200.47 2482.5,3200.54C2482.78,3200.61 2483.04,3200.71 2483.28,3200.84C2483.51,3200.96 2483.7,3201.14 2483.84,3201.36C2483.99,3201.59 2484.06,3201.88 2484.06,3202.24C2484.06,3202.64 2483.94,3202.99 2483.71,3203.28C2483.47,3203.58 2483.14,3203.8 2482.71,3203.97C2482.28,3204.13 2481.76,3204.21 2481.16,3204.21Z" style="fill:rgb(129,155,248);fill-rule:nonzero;"/>
                        </g>
                        <g transform="matrix(1,0,0,1,0.0268272,0)">
                            <path d="M2485.96,3202.71L2486,3200.82L2489.34,3197.72L2491.15,3197.72L2488.29,3200.58L2487.5,3201.24L2485.96,3202.71ZM2484.74,3204.21L2484.74,3195.23L2486.24,3195.23L2486.24,3204.21L2484.74,3204.21ZM2489.63,3204.21L2487.23,3201.24L2488.17,3200.04L2491.46,3204.21L2489.63,3204.21Z" style="fill:rgb(129,155,248);fill-rule:nonzero;"/>
                        </g>
                        <g transform="matrix(1,0,0,1,0.523273,0)">
                            <path d="M2495.4,3204.21L2495.4,3202.83L2495.32,3202.56L2495.32,3200.29C2495.32,3199.85 2495.19,3199.51 2494.92,3199.27C2494.66,3199.02 2494.25,3198.9 2493.72,3198.9C2493.36,3198.9 2493.01,3198.96 2492.66,3199.07C2492.31,3199.18 2492.02,3199.34 2491.78,3199.53L2491.19,3198.44C2491.54,3198.18 2491.95,3197.98 2492.42,3197.85C2492.9,3197.71 2493.39,3197.65 2493.91,3197.65C2494.83,3197.65 2495.55,3197.87 2496.06,3198.31C2496.57,3198.76 2496.82,3199.45 2496.82,3200.37L2496.82,3204.21L2495.4,3204.21ZM2493.39,3204.21C2492.9,3204.21 2492.48,3204.13 2492.12,3203.97C2491.76,3203.8 2491.48,3203.58 2491.29,3203.28C2491.09,3202.99 2491,3202.66 2491,3202.3C2491,3201.93 2491.08,3201.61 2491.26,3201.32C2491.43,3201.04 2491.72,3200.81 2492.11,3200.64C2492.5,3200.47 2493.02,3200.39 2493.66,3200.39L2495.52,3200.39L2495.52,3201.38L2493.77,3201.38C2493.26,3201.38 2492.91,3201.47 2492.74,3201.63C2492.56,3201.8 2492.47,3202 2492.47,3202.24C2492.47,3202.51 2492.58,3202.72 2492.8,3202.88C2493.01,3203.04 2493.31,3203.12 2493.7,3203.12C2494.07,3203.12 2494.4,3203.04 2494.69,3202.87C2494.98,3202.7 2495.19,3202.46 2495.32,3202.13L2495.57,3203.03C2495.43,3203.41 2495.17,3203.7 2494.8,3203.9C2494.43,3204.11 2493.96,3204.21 2493.39,3204.21Z" style="fill:rgb(129,155,248);fill-rule:nonzero;"/>
                        </g>
                        <g transform="matrix(1,0,0,1,0.493791,0)">
                            <path d="M2498.49,3204.21L2498.5,3195.23L2500.06,3195.23L2500.05,3202.81L2503.68,3202.81L2504.44,3204.21L2498.49,3204.21Z" style="fill:rgb(129,155,248);fill-rule:nonzero;"/>
                        </g>
                        <g transform="matrix(1,0,0,1,-0.0826605,0)">
                            <path d="M2509.24,3204.21L2509.24,3202.83L2509.17,3202.56L2509.17,3200.29C2509.17,3199.85 2509.03,3199.51 2508.77,3199.27C2508.5,3199.02 2508.1,3198.9 2507.57,3198.9C2507.21,3198.9 2506.85,3198.96 2506.51,3199.07C2506.16,3199.18 2505.87,3199.34 2505.62,3199.53L2505.04,3198.44C2505.38,3198.18 2505.79,3197.98 2506.27,3197.85C2506.75,3197.71 2507.24,3197.65 2507.75,3197.65C2508.68,3197.65 2509.4,3197.87 2509.91,3198.31C2510.41,3198.76 2510.67,3199.45 2510.67,3200.37L2510.67,3204.21L2509.24,3204.21ZM2507.24,3204.21C2506.75,3204.21 2506.33,3204.13 2505.97,3203.97C2505.61,3203.8 2505.33,3203.58 2505.14,3203.28C2504.94,3202.99 2504.84,3202.66 2504.84,3202.3C2504.84,3201.93 2504.93,3201.61 2505.11,3201.32C2505.28,3201.04 2505.56,3200.81 2505.95,3200.64C2506.35,3200.47 2506.87,3200.39 2507.51,3200.39L2509.37,3200.39L2509.37,3201.38L2507.62,3201.38C2507.11,3201.38 2506.76,3201.47 2506.59,3201.63C2506.41,3201.8 2506.32,3202 2506.32,3202.24C2506.32,3202.51 2506.43,3202.72 2506.64,3202.88C2506.86,3203.04 2507.16,3203.12 2507.54,3203.12C2507.91,3203.12 2508.25,3203.04 2508.54,3202.87C2508.83,3202.7 2509.04,3202.46 2509.17,3202.13L2509.42,3203.03C2509.28,3203.41 2509.02,3203.7 2508.65,3203.9C2508.28,3204.11 2507.81,3204.21 2507.24,3204.21Z" style="fill:rgb(129,155,248);fill-rule:nonzero;"/>
                        </g>
                        <g transform="matrix(1,0,0,1,-0.589456,0)">
                            <path d="M2515.75,3204.21C2515.2,3204.21 2514.72,3204.09 2514.29,3203.86C2513.86,3203.62 2513.53,3203.26 2513.29,3202.77C2513.05,3202.28 2512.93,3201.67 2512.93,3200.93C2512.93,3200.18 2513.05,3199.56 2513.3,3199.08C2513.55,3198.6 2513.89,3198.24 2514.32,3198C2514.74,3197.76 2515.22,3197.65 2515.75,3197.65C2516.37,3197.65 2516.93,3197.78 2517.41,3198.05C2517.9,3198.33 2518.28,3198.71 2518.57,3199.2C2518.85,3199.69 2518.99,3200.26 2518.99,3200.93C2518.99,3201.59 2518.85,3202.16 2518.57,3202.66C2518.28,3203.15 2517.9,3203.53 2517.41,3203.8C2516.93,3204.07 2516.37,3204.21 2515.75,3204.21ZM2512.19,3204.21L2512.19,3195.23L2513.69,3195.23L2513.69,3199.22L2513.57,3200.92L2513.62,3202.62L2513.62,3204.21L2512.19,3204.21ZM2515.57,3202.93C2515.93,3202.93 2516.25,3202.85 2516.54,3202.69C2516.82,3202.53 2517.05,3202.3 2517.22,3201.99C2517.39,3201.69 2517.47,3201.33 2517.47,3200.93C2517.47,3200.51 2517.39,3200.16 2517.22,3199.86C2517.05,3199.56 2516.82,3199.33 2516.54,3199.16C2516.25,3199 2515.93,3198.92 2515.57,3198.92C2515.21,3198.92 2514.89,3199 2514.6,3199.16C2514.32,3199.33 2514.09,3199.56 2513.92,3199.86C2513.75,3200.16 2513.66,3200.51 2513.66,3200.93C2513.66,3201.33 2513.75,3201.69 2513.92,3201.99C2514.09,3202.3 2514.32,3202.53 2514.6,3202.69C2514.89,3202.85 2515.21,3202.93 2515.57,3202.93Z" style="fill:rgb(129,155,248);fill-rule:nonzero;"/>
                        </g>
                        <g transform="matrix(1,0,0,1,-0.705143,0)">
                            <path d="M2522.23,3204.21C2521.69,3204.21 2521.17,3204.14 2520.68,3204C2520.19,3203.87 2519.8,3203.7 2519.51,3203.5L2520.09,3202.36C2520.37,3202.54 2520.72,3202.69 2521.12,3202.81C2521.52,3202.93 2521.92,3202.99 2522.32,3202.99C2522.79,3202.99 2523.14,3202.93 2523.35,3202.8C2523.55,3202.67 2523.66,3202.5 2523.66,3202.28C2523.66,3202.11 2523.59,3201.97 2523.45,3201.88C2523.3,3201.79 2523.11,3201.72 2522.88,3201.67C2522.64,3201.62 2522.39,3201.58 2522.11,3201.54C2521.82,3201.5 2521.54,3201.44 2521.26,3201.38C2520.98,3201.31 2520.72,3201.21 2520.48,3201.08C2520.25,3200.95 2520.06,3200.77 2519.92,3200.54C2519.77,3200.32 2519.7,3200.02 2519.7,3199.65C2519.7,3199.25 2519.82,3198.9 2520.05,3198.6C2520.28,3198.29 2520.61,3198.06 2521.03,3197.89C2521.45,3197.73 2521.94,3197.65 2522.52,3197.65C2522.95,3197.65 2523.39,3197.7 2523.83,3197.79C2524.27,3197.89 2524.64,3198.03 2524.92,3198.21L2524.35,3199.35C2524.05,3199.16 2523.74,3199.04 2523.43,3198.97C2523.12,3198.9 2522.81,3198.87 2522.51,3198.87C2522.06,3198.87 2521.72,3198.93 2521.5,3199.07C2521.28,3199.2 2521.16,3199.37 2521.16,3199.59C2521.16,3199.77 2521.24,3199.91 2521.38,3200.01C2521.52,3200.11 2521.71,3200.18 2521.95,3200.24C2522.18,3200.3 2522.44,3200.34 2522.72,3200.38C2523,3200.42 2523.28,3200.47 2523.57,3200.54C2523.85,3200.61 2524.11,3200.71 2524.34,3200.84C2524.58,3200.96 2524.76,3201.14 2524.91,3201.36C2525.05,3201.59 2525.12,3201.88 2525.12,3202.24C2525.12,3202.64 2525.01,3202.99 2524.77,3203.28C2524.54,3203.58 2524.2,3203.8 2523.77,3203.97C2523.34,3204.13 2522.83,3204.21 2522.23,3204.21Z" style="fill:rgb(129,155,248);fill-rule:nonzero;"/>
                        </g>
                    </g>
                </g>
            </g>
        </g>
    </g>
</svg>
